<svg width="27" height="26" viewBox="0 0 27 26" fill="none" xmlns="http://www.w3.org/2000/svg">
<path id="Vector" d="M13.5615 0.195312C6.5081 0.195312 0.788093 6.05975 0.788093 13.2941C0.785212 16.0397 1.62727 18.7167 3.19527 20.9469C4.76327 23.1772 6.97791 24.8477 9.52619 25.7226C10.1649 25.8433 10.3981 25.4388 10.3981 25.0915C10.3981 24.78 10.3869 23.9564 10.3805 22.8638C6.82747 23.6547 6.07694 21.1074 6.07694 21.1074C5.49727 19.594 4.65892 19.1911 4.65892 19.1911C3.49799 18.379 4.74515 18.3953 4.74515 18.3953C6.02744 18.4883 6.70132 19.7456 6.70132 19.7456C7.84149 21.7466 9.69226 21.1693 10.4204 20.8334C10.5354 19.987 10.866 19.4097 11.2316 19.0819C8.3956 18.7508 5.41264 17.6272 5.41264 12.6091C5.41264 11.1789 5.91086 10.0096 6.72846 9.09309C6.59592 8.76203 6.15838 7.42965 6.85302 5.62759C6.85302 5.62759 7.92612 5.27533 10.3661 6.96975C11.4085 6.67883 12.4841 6.53076 13.5647 6.52943C14.6453 6.53162 15.7209 6.68024 16.7632 6.97139C19.2016 5.27696 20.2731 5.62922 20.2731 5.62922C20.9694 7.43291 20.5318 8.76366 20.4009 9.09472C21.2201 10.0112 21.7135 11.1805 21.7135 12.6108C21.7135 17.6419 18.7274 18.7492 15.8817 19.0737C16.34 19.4782 16.7488 20.2773 16.7488 21.4988C16.7488 23.2503 16.7329 24.6626 16.7329 25.0915C16.7329 25.4421 16.9628 25.8498 17.6112 25.721C20.157 24.844 22.3689 23.1728 23.9347 20.9431C25.5005 18.7135 26.3412 16.0379 26.3381 13.2941C26.3381 6.05975 20.6181 0.195312 13.5615 0.195312Z" fill="black"/>
</svg>
